<svg width="21" height="21" viewBox="0 0 21 21" xmlns="http://www.w3.org/2000/svg">
<path d="M15.2928 1C15.884 1.21381 16.4881 1.33893 16.9933 1.63352C18.4629 2.48243 19.5674 3.65048 19.9495 5.34989C20.0838 5.94223 19.9575 6.42054 19.4845 6.88143C15.5607 10.7063 11.6634 14.5628 7.74679 18.3909C7.52905 18.5981 7.25872 18.7439 6.96412 18.8129C5.33039 19.1653 3.68942 19.4845 2.04926 19.8092C1.34059 19.9493 0.885304 19.5106 1.02527 18.8129C1.36151 17.146 1.70257 15.4798 2.05972 13.8177C2.10951 13.6143 2.21462 13.4281 2.36378 13.2792C6.37449 9.31492 10.393 5.3586 14.4192 1.4102C14.6228 1.20747 14.9662 1.14729 15.2928 1ZM7.78862 16.1458L15.5188 8.51273L12.5136 5.5542L4.78179 13.1422L7.78862 16.1458ZM16.7174 7.47773C17.2732 6.90914 17.8009 6.38649 18.3021 5.84166C18.3441 5.78063 18.3717 5.71114 18.383 5.63826C18.3942 5.56538 18.3889 5.49094 18.3672 5.42037C17.8846 4.12245 16.9724 3.23077 15.6725 2.72792C15.5542 2.68199 15.3427 2.67644 15.2703 2.74692C14.6992 3.27828 14.1506 3.8342 13.6197 4.35765L16.7174 7.47773ZM3.54544 14.2627C3.28642 15.5297 3.02741 16.7968 2.76035 18.0979L6.66247 17.3218L3.54544 14.2627Z" />
</svg>
